<svg width="640" height="180" viewBox="0 0 640 180" fill="none" xmlns="http://www.w3.org/2000/svg" role="img" aria-labelledby="title desc">
  <title id="title">vibecodecheck logo</title>
  <desc id="desc">Pre-launch readiness checks for search engines, AI crawlers, and security headers.</desc>
  <defs>
    <linearGradient id="bg" x1="0" y1="0" x2="640" y2="180" gradientUnits="userSpaceOnUse"><stop stop-color="#111827"/><stop offset="1" stop-color="#0F172A"/></linearGradient>
    <linearGradient id="accent" x1="70" y1="42" x2="178" y2="146" gradientUnits="userSpaceOnUse"><stop stop-color="#38BDF8"/><stop offset="1" stop-color="#A78BFA"/></linearGradient>
    <filter id="shadow" x="-20%" y="-20%" width="140%" height="140%" color-interpolation-filters="sRGB"><feDropShadow dx="0" dy="14" stdDeviation="18" flood-color="#020617" flood-opacity="0.35"/></filter>
  </defs>
  <rect width="640" height="180" rx="34" fill="url(#bg)"/>
  <g opacity="0.34"><path d="M430 30H604" stroke="#334155" stroke-width="2"/><path d="M398 62H580" stroke="#334155" stroke-width="2"/><path d="M454 126H612" stroke="#334155" stroke-width="2"/><circle cx="435" cy="30" r="4" fill="#38BDF8"/><circle cx="403" cy="62" r="4" fill="#A78BFA"/><circle cx="459" cy="126" r="4" fill="#22C55E"/></g>
  <g filter="url(#shadow)">
    <rect x="54" y="38" width="142" height="104" rx="26" fill="#0B1220" stroke="#1E293B" stroke-width="2"/>
    <path d="M86 79L113 94L86 109" stroke="url(#accent)" stroke-width="9" stroke-linecap="round" stroke-linejoin="round"/>
    <path d="M129 114H166" stroke="#E5E7EB" stroke-width="9" stroke-linecap="round"/>
    <path d="M151 57L180 69V92C180 114 167 129 151 135C135 129 122 114 122 92V69L151 57Z" fill="#111827" stroke="#38BDF8" stroke-width="5"/>
    <path d="M139 94L149 104L166 82" stroke="#22C55E" stroke-width="6" stroke-linecap="round" stroke-linejoin="round"/>
  </g>
  <text x="228" y="80" fill="#F8FAFC" font-family="Inter, ui-sans-serif, system-ui, -apple-system, BlinkMacSystemFont, Segoe UI, sans-serif" font-size="38" font-weight="800" letter-spacing="-1.2">vibecodecheck</text>
  <text x="230" y="114" fill="#CBD5E1" font-family="Inter, ui-sans-serif, system-ui" font-size="18" font-weight="500">Pre-launch readiness checks for search engines, AI crawlers, and security headers.</text>
  <text x="230" y="145" fill="#93C5FD" font-family="Inter, ui-sans-serif, system-ui" font-size="14" font-weight="800">100-point score · robots.txt · llms.txt</text>
</svg>
